<?xml version="1.0" standalone="no"?><!DOCTYPE svg PUBLIC "-//W3C//DTD SVG 1.1//EN" "http://www.w3.org/Graphics/SVG/1.1/DTD/svg11.dtd"><svg t="1712826591312" class="icon" viewBox="0 0 2133 1024" version="1.1" xmlns="http://www.w3.org/2000/svg" p-id="4275" width="66.65625" height="32" xmlns:xlink="http://www.w3.org/1999/xlink"><path d="M0 298.666667a256 256 0 0 1 256-256h1621.333333a256 256 0 0 1 256 256v426.666666a256 256 0 0 1-256 256H256a256 256 0 0 1-256-256v-426.666666z" fill="#00C57B" fill-opacity=".65" p-id="4276"></path><path d="M304.554667 513.962667c0-17.92 1.877333-35.157333 5.717333-51.968 4.181333-16.725333 10.666667-31.573333 19.370667-44.544 8.789333-13.312 20.224-23.808 34.304-31.402667 14.08-8.021333 31.232-11.946667 51.370666-11.946667 20.224 0 37.376 3.925333 51.456 11.946667 14.08 7.68 25.514667 18.090667 34.218667 31.402667 8.789333 12.970667 15.104 27.818667 18.858667 44.544a213.504 213.504 0 0 1 0 102.229333 130.816 130.816 0 0 1-18.773334 43.52 100.693333 100.693333 0 0 1-34.304 31.317333c-14.08 7.68-31.232 11.434667-51.456 11.434667-20.138667 0-37.290667-3.754667-51.370666-11.434667a100.693333 100.693333 0 0 1-34.304-31.402666 140.202667 140.202667 0 0 1-19.370667-43.434667 221.184 221.184 0 0 1-5.717333-50.261333z m-89.685334 0c0 29.696 4.522667 57.514667 13.653334 83.456 9.216 25.514667 22.357333 47.786667 39.424 66.816 17.152 19.029333 38.144 34.133333 62.890666 45.141333 25.088 10.666667 53.248 15.957333 84.48 15.957333 31.573333 0 59.733333-5.290667 84.565334-15.957333 24.746667-11.093333 45.653333-26.112 62.805333-45.226667 17.152-18.944 30.293333-41.216 39.424-66.730666 9.130667-25.941333 13.653333-53.76 13.653333-83.456 0-30.464-4.522667-58.624-13.653333-84.48a203.178667 203.178667 0 0 0-39.424-68.522667 180.906667 180.906667 0 0 0-62.805333-45.738667c-24.746667-11.093333-52.906667-16.554667-84.48-16.554666-31.317333 0-59.477333 5.546667-84.565334 16.554666a180.906667 180.906667 0 0 0-62.890666 45.738667c-17.066667 19.370667-30.208 42.24-39.338667 68.522667-9.216 25.856-13.738667 54.016-13.738667 84.48zM668.586667 420.864v295.253333h81.066666V561.493333c0-30.122667 4.949333-51.626667 14.848-64.512 9.898667-13.397333 25.941333-20.053333 47.957334-20.053333 19.456 0 32.938667 6.144 40.618666 18.346667 7.594667 11.776 11.349333 29.866667 11.349334 54.186666v166.826667h81.152V534.528c0-18.261333-1.706667-34.816-5.12-49.664a90.112 90.112 0 0 0-16.554667-38.229333 75.946667 75.946667 0 0 0-33.194667-24.576 131.754667 131.754667 0 0 0-53.077333-9.130667c-17.066667 0-33.877333 4.010667-50.346667 11.946667a91.306667 91.306667 0 0 0-39.936 37.12h-1.706666v-41.130667h-77.056zM1009.493333 308.394667v407.808h81.066667v-407.893334h-81.066667zM1237.76 375.210667v-66.816h-81.066667v66.816h81.066667z m-81.066667 45.653333v295.253333h81.066667v-295.253333h-81.066667zM1301.674667 420.864v295.253333h81.066666V561.493333c0-30.122667 4.949333-51.626667 14.848-64.512 9.898667-13.397333 25.941333-20.053333 47.957334-20.053333 19.456 0 32.938667 6.144 40.618666 18.346667 7.594667 11.776 11.349333 29.866667 11.349334 54.186666v166.826667h81.152V534.528c0-18.261333-1.706667-34.816-5.12-49.664a90.112 90.112 0 0 0-16.554667-38.229333 75.946667 75.946667 0 0 0-33.194667-24.576 131.754667 131.754667 0 0 0-53.077333-9.130667c-17.066667 0-33.877333 4.010667-50.346667 11.946667a91.306667 91.306667 0 0 0-39.936 37.12h-1.706666v-41.130667h-77.056zM1838.933333 536.832h-131.925333c0.426667-5.717333 1.536-12.202667 3.413333-19.370667a66.730667 66.730667 0 0 1 10.922667-20.565333 62.293333 62.293333 0 0 1 20.48-16.042667 69.802667 69.802667 0 0 1 32.597333-6.826666c19.797333 0 34.474667 5.290667 44.032 15.957333 9.898667 10.666667 16.725333 26.282667 20.48 46.933333z m-131.925333 51.456h213.077333a208.554667 208.554667 0 0 0-5.717333-65.706667 157.866667 157.866667 0 0 0-26.282667-55.978666 125.866667 125.866667 0 0 0-45.653333-38.826667 138.24 138.24 0 0 0-65.706667-14.848c-22.442667 0-43.008 4.010667-61.696 11.946667-18.261333 8.021333-34.133333 19.029333-47.36 33.109333a141.653333 141.653333 0 0 0-30.890666 49.152 172.202667 172.202667 0 0 0-10.837334 61.696c0 22.869333 3.413333 43.776 10.24 62.805333 7.253333 19.029333 17.408 35.413333 30.293334 49.152 12.970667 13.653333 28.757333 24.405333 47.445333 32 18.602667 7.253333 39.594667 10.837333 62.805333 10.837334 33.536 0 62.037333-7.68 85.674667-22.869334 23.637333-15.189333 41.130667-40.533333 52.565333-75.946666h-71.424c-2.645333 9.130667-9.898667 17.92-21.674666 26.282666a73.557333 73.557333 0 0 1-42.24 11.946667c-22.869333 0-40.362667-5.888-52.565334-17.664-12.202667-11.776-18.858667-30.890667-20.053333-57.173333z" fill="#FFFFFF" p-id="4277"></path></svg>